<svg width="476" height="316" viewBox="0 0 476 316" fill="none" xmlns="http://www.w3.org/2000/svg">
<rect width="476" height="316" fill="#1E1E1E"/>
<g filter="url(#filter0_n_0_1)">
<g clip-path="url(#clip0_0_1)">
<rect x="22.8" y="22.8" width="430" height="270" rx="16" fill="#E99F9F"/>
<rect x="22.8" y="22.8" width="430" height="270" rx="16" fill="white" fill-opacity="0.35"/>
<g filter="url(#filter1_df_0_1)">
<circle cx="403.8" cy="231.8" r="182" fill="#E52D0C" fill-opacity="0.9" shape-rendering="crispEdges"/>
</g>
<g filter="url(#filter2_df_0_1)">
<circle cx="152.3" cy="49.3" r="216.5" fill="#EB543A" fill-opacity="0.9" shape-rendering="crispEdges"/>
</g>
</g>
<rect x="23.55" y="23.55" width="428.5" height="268.5" rx="15.25" stroke="black" stroke-width="1.5"/>
</g>
<g clip-path="url(#clip1_0_1)">
<path fill-rule="evenodd" clip-rule="evenodd" d="M397.274 64.9261C397.822 64.6594 398.515 64.8296 398.822 65.3062C400.664 68.1696 401.633 71.4154 401.633 74.7178C401.633 78.0201 400.664 81.2659 398.822 84.1293C398.515 84.606 397.822 84.7761 397.274 84.5094C396.726 84.2427 396.531 83.64 396.837 83.1634C398.488 80.5975 399.359 77.6846 399.359 74.7178C399.359 71.7509 398.488 68.838 396.837 66.2721C396.531 65.7955 396.726 65.1928 397.274 64.9261ZM392.896 66.8904C393.444 66.6237 394.137 66.7939 394.444 67.2705C395.902 69.5367 396.668 72.105 396.668 74.7178C396.668 77.3305 395.902 79.8988 394.444 82.165C394.137 82.6417 393.444 82.8119 392.896 82.5451C392.348 82.2784 392.152 81.6757 392.459 81.1991C393.726 79.2304 394.394 76.995 394.394 74.7178C394.394 72.4405 393.726 70.2051 392.459 68.2364C392.152 67.7598 392.348 67.1571 392.896 66.8904ZM388.721 68.6918C389.271 68.4272 389.963 68.6001 390.267 69.078C391.347 70.7735 391.913 72.6938 391.913 74.6463C391.913 76.5989 391.347 78.5192 390.267 80.2147C389.963 80.6925 389.271 80.8654 388.721 80.6009C388.172 80.3363 387.973 79.7344 388.277 79.2565C389.168 77.8574 389.639 76.2672 389.639 74.6463C389.639 73.0254 389.168 71.4353 388.277 70.0361C387.973 69.5583 388.172 68.9564 388.721 68.6918ZM384.48 70.6706C385.008 70.376 385.712 70.5101 386.051 70.9701C386.877 72.0922 387.316 73.3907 387.316 74.7178C387.316 76.0448 386.877 77.3433 386.051 78.4654C385.712 78.9254 385.008 79.0595 384.48 78.7649C383.951 78.4703 383.796 77.8586 384.135 77.3987C384.729 76.5925 385.042 75.6637 385.042 74.7178C385.042 73.7718 384.729 72.843 384.135 72.0368C383.796 71.5769 383.951 70.9652 384.48 70.6706Z" fill="white"/>
</g>
<g opacity="0.8">
<rect x="63.8" y="120.8" width="45" height="27" rx="5" fill="url(#paint0_radial_0_1)" fill-opacity="0.8" stroke="white"/>
<path fill-rule="evenodd" clip-rule="evenodd" d="M86.3 121.069L81.3 128.125C81.3 128.125 83.3 134.299 81.3 139.591L86.3 147.529L91.3 139.591C91.3 139.591 89.3 135.181 91.3 128.125C91.3 128.125 86.3 121.069 86.3 121.069Z" stroke="white" stroke-linejoin="bevel"/>
<path d="M63.8 128.449H81.3" stroke="white" stroke-linejoin="bevel"/>
<path d="M90.7995 128.449H108.8" stroke="white" stroke-linejoin="bevel"/>
<path d="M63.8 139.248H81.3" stroke="white" stroke-linejoin="bevel"/>
<path d="M90.7995 139.248H108.8" stroke="white" stroke-linejoin="bevel"/>
</g>
<path d="M375.989 239.706C375.989 235.264 378.075 231.324 381.28 228.774C378.924 226.92 375.95 225.8 372.706 225.8C365.019 225.8 358.8 232.019 358.8 239.706C358.8 247.392 365.019 253.611 372.706 253.611C375.95 253.611 378.924 252.491 381.28 250.637C378.075 248.126 375.989 244.147 375.989 239.706Z" fill="white" fill-opacity="0.35"/>
<path d="M403.799 239.706C403.799 247.392 397.581 253.611 389.894 253.611C386.649 253.611 383.675 252.491 381.319 250.637C384.564 248.087 386.611 244.147 386.611 239.706C386.611 235.264 384.525 231.324 381.319 228.774C383.675 226.92 386.649 225.8 389.894 225.8C397.581 225.8 403.799 232.057 403.799 239.706Z" fill="white" fill-opacity="0.75"/>
<path d="M381.3 228.676C384.643 231.234 386.8 235.265 386.8 239.8C386.8 244.335 384.643 248.365 381.3 250.923C377.957 248.365 375.8 244.335 375.8 239.8C375.8 235.265 377.957 231.234 381.3 228.676Z" fill="white"/>
<path d="M74.5072 190.568C74.5072 190.736 74.4745 190.899 74.4092 191.058C74.3532 191.207 74.2739 191.343 74.1712 191.464C74.0685 191.576 73.9472 191.669 73.8072 191.744C73.6672 191.819 73.5132 191.856 73.3452 191.856L65.8972 191.87C65.5239 191.87 65.2299 191.753 65.0152 191.52C64.8005 191.277 64.6932 190.969 64.6932 190.596C64.6932 189.719 65.0712 189.257 65.8272 189.21C66.2285 189.238 66.8399 189.252 67.6612 189.252C68.0065 189.243 68.1932 189.145 68.2212 188.958C68.2865 188.463 68.3332 187.866 68.3612 187.166C68.3985 186.457 68.4172 185.635 68.4172 184.702C68.4172 183.769 68.3612 182.397 68.2492 180.586C68.2399 180.306 68.0532 180.031 67.6892 179.76C67.3439 179.499 67.1712 179.158 67.1712 178.738C67.1712 178.197 67.4372 177.716 67.9692 177.296C68.4545 176.895 68.9725 176.694 69.5232 176.694C70.4939 176.694 70.9792 177.086 70.9792 177.87C70.9699 177.973 70.9652 178.136 70.9652 178.36C70.9652 178.575 70.9605 178.859 70.9512 179.214C70.9419 179.494 70.9372 179.746 70.9372 179.97C70.9372 180.194 70.9372 180.395 70.9372 180.572V188.958C70.9372 189.219 71.2872 189.341 71.9872 189.322C72.2112 189.322 72.4865 189.308 72.8132 189.28C72.9812 189.261 73.1119 189.247 73.2052 189.238C73.2985 189.229 73.3545 189.224 73.3732 189.224C73.6439 189.224 73.9005 189.378 74.1432 189.686C74.3859 190.003 74.5072 190.297 74.5072 190.568ZM87.4739 190.778C87.4739 191.142 87.3573 191.436 87.1239 191.66C86.8906 191.875 86.5919 191.982 86.2279 191.982C86.1719 191.982 86.1019 191.973 86.0179 191.954C85.9339 191.945 85.8359 191.931 85.7239 191.912C85.4906 191.865 85.3319 191.842 85.2479 191.842H79.2419C78.7566 191.842 78.3973 191.739 78.1639 191.534C77.9399 191.329 77.8139 190.988 77.7859 190.512C77.7393 189.616 77.7019 188.911 77.6739 188.398C77.6459 187.885 77.6319 187.549 77.6319 187.39C77.6319 186.466 77.7533 185.761 77.9959 185.276C78.3039 184.679 78.8639 184.254 79.6759 184.002C79.9933 183.909 80.3806 183.82 80.8379 183.736C81.3046 183.643 81.8506 183.554 82.4759 183.47C84.0626 183.255 84.8559 182.565 84.8559 181.398C84.8559 180.399 84.6226 179.765 84.1559 179.494C83.8573 179.317 83.1433 179.228 82.0139 179.228C81.3233 179.228 80.7493 179.312 80.2919 179.48C79.6573 179.704 79.2373 179.816 79.0319 179.816C78.6679 179.816 78.3879 179.657 78.1919 179.34C78.0333 179.069 77.9539 178.757 77.9539 178.402C77.9539 177.273 79.4099 176.708 82.3219 176.708C84.1233 176.708 85.3926 176.979 86.1299 177.52C87.0166 178.183 87.4599 179.382 87.4599 181.118C87.4599 183.666 86.2979 185.141 83.9739 185.542C83.7313 185.57 83.4839 185.598 83.2319 185.626C82.9893 185.654 82.7466 185.677 82.5039 185.696C81.8506 185.78 81.3513 185.915 81.0059 186.102C80.5393 186.373 80.3059 186.765 80.3059 187.278C80.3059 188.463 80.3946 189.103 80.5719 189.196C80.6746 189.252 80.8613 189.285 81.1319 189.294C81.4213 189.313 81.7059 189.327 81.9859 189.336C82.2753 189.345 82.5646 189.35 82.8539 189.35C84.0299 189.35 84.7533 189.336 85.0239 189.308C85.0613 189.299 85.1266 189.289 85.2199 189.28C85.3133 189.261 85.4346 189.233 85.5839 189.196C85.6959 189.177 85.7986 189.163 85.8919 189.154C85.9853 189.145 86.0693 189.14 86.1439 189.14C86.5639 189.14 86.8999 189.313 87.1519 189.658C87.3666 189.975 87.4739 190.349 87.4739 190.778ZM100.413 187.39C100.413 188.809 100.128 189.873 99.5587 190.582C99.0733 191.189 98.3173 191.599 97.2907 191.814C96.9453 191.879 96.4973 191.926 95.9467 191.954C95.4053 191.991 94.7567 192.01 94.0007 192.01C91.7327 192.01 90.5987 191.492 90.5987 190.456C90.5987 190.064 90.7247 189.728 90.9767 189.448C91.238 189.168 91.5647 189.028 91.9567 189.028C92.1713 189.028 92.5027 189.107 92.9507 189.266C93.3987 189.425 93.73 189.504 93.9447 189.504C95.3167 189.504 96.1987 189.434 96.5907 189.294C97.384 189.033 97.7807 188.375 97.7807 187.32C97.7807 186.751 97.7387 186.34 97.6547 186.088C97.5053 185.687 97.2113 185.486 96.7727 185.486C96.278 185.486 95.886 185.491 95.5967 185.5C95.3167 185.5 95.1393 185.505 95.0647 185.514C95.0087 185.523 94.92 185.537 94.7987 185.556C94.6867 185.575 94.542 185.607 94.3647 185.654C94.0847 185.71 93.856 185.738 93.6787 185.738C93.492 185.738 93.3147 185.705 93.1467 185.64C92.988 185.565 92.8433 185.467 92.7127 185.346C92.5913 185.225 92.4933 185.085 92.4187 184.926C92.3533 184.758 92.3207 184.581 92.3207 184.394C92.3207 183.741 92.6567 183.321 93.3287 183.134C93.6273 183.059 94.22 183.022 95.1067 183.022C95.3213 183.022 95.634 183.036 96.0447 183.064C96.446 183.092 96.754 183.106 96.9687 183.106C97.4913 183.106 97.7527 182.518 97.7527 181.342C97.7527 180.446 97.552 179.858 97.1507 179.578C96.8333 179.373 96.194 179.27 95.2327 179.27C95.0553 179.27 94.444 179.312 93.3987 179.396C93.324 179.405 93.226 179.424 93.1047 179.452C92.9833 179.471 92.834 179.503 92.6567 179.55C92.3487 179.634 92.0827 179.676 91.8587 179.676C91.5133 179.676 91.2287 179.555 91.0047 179.312C90.79 179.069 90.6827 178.775 90.6827 178.43C90.6827 177.683 91.2473 177.184 92.3767 176.932C92.9833 176.801 93.8467 176.736 94.9667 176.736C96.8987 176.736 98.2193 176.951 98.9287 177.38C99.918 177.977 100.413 179.181 100.413 180.992C100.413 182.429 100.114 183.493 99.5167 184.184C99.498 184.221 99.4887 184.249 99.4887 184.268C99.4887 184.287 99.512 184.319 99.5587 184.366C99.9133 184.693 100.156 185.169 100.287 185.794C100.371 186.177 100.413 186.709 100.413 187.39ZM113.491 184.548C113.491 185.136 113.076 185.481 112.245 185.584L111.419 185.668C111.177 185.715 111.051 185.785 111.041 185.878C111.004 186.055 110.985 186.531 110.985 187.306C110.985 187.493 110.985 187.726 110.985 188.006C110.995 188.286 111.004 188.617 111.013 189C111.023 189.373 111.027 189.7 111.027 189.98C111.037 190.26 111.041 190.493 111.041 190.68C111.041 191.053 110.929 191.366 110.705 191.618C110.491 191.87 110.206 191.996 109.851 191.996C109.683 191.996 109.515 191.963 109.347 191.898C109.189 191.842 109.049 191.763 108.927 191.66C108.806 191.548 108.708 191.417 108.633 191.268C108.559 191.119 108.521 190.96 108.521 190.792C108.521 190.652 108.526 190.479 108.535 190.274C108.554 190.059 108.573 189.807 108.591 189.518C108.61 189.229 108.624 188.977 108.633 188.762C108.652 188.547 108.661 188.37 108.661 188.23C108.661 187.017 108.643 186.303 108.605 186.088C108.596 186.051 108.587 186.009 108.577 185.962C108.568 185.915 108.554 185.864 108.535 185.808C108.498 185.771 108.339 185.724 108.059 185.668C107.518 185.565 106.748 185.514 105.749 185.514C105.675 185.514 105.558 185.533 105.399 185.57C105.241 185.598 105.119 185.612 105.035 185.612C104.223 185.612 103.799 185.075 103.761 184.002C103.715 183.013 103.677 182.033 103.649 181.062C103.631 180.082 103.621 179.097 103.621 178.108C103.621 177.716 103.724 177.385 103.929 177.114C104.144 176.843 104.447 176.708 104.839 176.708C105.437 176.708 105.824 176.937 106.001 177.394C106.104 177.655 106.155 178.122 106.155 178.794C106.155 178.999 106.151 179.247 106.141 179.536C106.132 179.825 106.118 180.166 106.099 180.558C106.081 180.95 106.067 181.291 106.057 181.58C106.048 181.869 106.043 182.117 106.043 182.322C106.043 182.649 106.095 182.873 106.197 182.994C106.309 183.115 106.515 183.185 106.813 183.204C106.869 183.213 106.953 183.218 107.065 183.218C107.177 183.218 107.322 183.218 107.499 183.218C108.143 183.218 108.517 183.153 108.619 183.022C108.685 182.957 108.717 182.695 108.717 182.238C108.717 181.753 108.689 181.053 108.633 180.138C108.615 179.671 108.596 179.265 108.577 178.92C108.568 178.565 108.563 178.267 108.563 178.024C108.563 177.147 108.993 176.708 109.851 176.708C110.318 176.708 110.64 176.853 110.817 177.142C110.967 177.375 111.041 177.735 111.041 178.22C111.041 178.649 111.027 179.275 110.999 180.096C110.99 180.507 110.981 180.866 110.971 181.174C110.971 181.482 110.971 181.743 110.971 181.958C110.971 182.817 111.135 183.246 111.461 183.246C111.667 183.246 111.853 183.218 112.021 183.162C112.189 183.097 112.325 183.064 112.427 183.064C112.773 183.064 113.043 183.232 113.239 183.568C113.407 183.848 113.491 184.175 113.491 184.548ZM153.922 187.418C153.922 189.061 153.586 190.232 152.914 190.932C152.223 191.66 151.066 192.024 149.442 192.024C149.125 192.024 148.737 192.01 148.28 191.982C148.271 191.982 148.173 191.977 147.986 191.968C147.799 191.968 147.51 191.963 147.118 191.954C146.306 191.945 145.69 191.851 145.27 191.674C144.617 191.413 144.29 190.923 144.29 190.204C144.29 189.868 144.402 189.574 144.626 189.322C144.859 189.07 145.149 188.944 145.494 188.944C145.709 188.944 146.208 189.042 146.992 189.238C147.795 189.425 148.364 189.518 148.7 189.518C149.801 189.518 150.511 189.373 150.828 189.084C151.145 188.795 151.304 188.104 151.304 187.012C151.304 186.685 151.197 186.396 150.982 186.144C150.767 185.892 150.497 185.757 150.17 185.738C149.535 185.701 149.017 185.677 148.616 185.668C148.224 185.649 147.939 185.64 147.762 185.64C147.65 185.64 147.519 185.649 147.37 185.668C147.23 185.677 147.067 185.701 146.88 185.738C146.693 185.775 146.53 185.803 146.39 185.822C146.259 185.831 146.147 185.836 146.054 185.836C145.391 185.836 144.929 185.663 144.668 185.318C144.425 185.019 144.304 184.534 144.304 183.862C144.304 183.563 144.309 183.185 144.318 182.728C144.327 182.261 144.341 181.72 144.36 181.104C144.379 180.488 144.393 179.951 144.402 179.494C144.411 179.027 144.416 178.64 144.416 178.332C144.416 177.921 144.519 177.581 144.724 177.31C144.948 176.993 145.261 176.834 145.662 176.834C145.783 176.834 145.928 176.843 146.096 176.862C146.273 176.871 146.479 176.895 146.712 176.932C146.955 176.969 147.165 176.997 147.342 177.016C147.519 177.025 147.669 177.03 147.79 177.03C148.21 177.03 149.302 176.946 151.066 176.778C151.113 176.769 151.192 176.759 151.304 176.75C151.416 176.731 151.556 176.703 151.724 176.666C151.855 176.647 151.976 176.633 152.088 176.624C152.2 176.605 152.298 176.596 152.382 176.596C152.569 176.596 152.741 176.633 152.9 176.708C153.068 176.783 153.208 176.885 153.32 177.016C153.441 177.137 153.535 177.282 153.6 177.45C153.675 177.618 153.712 177.795 153.712 177.982C153.712 178.561 153.483 178.939 153.026 179.116C152.774 179.237 152.331 179.298 151.696 179.298C149.801 179.298 148.415 179.368 147.538 179.508C147.258 179.545 147.109 179.681 147.09 179.914L147.006 181.16C146.987 181.421 146.969 181.659 146.95 181.874C146.941 182.079 146.936 182.261 146.936 182.42C146.936 182.877 147.034 183.153 147.23 183.246C147.314 183.283 147.617 183.302 148.14 183.302H149.498C149.573 183.302 149.666 183.302 149.778 183.302C149.89 183.302 150.021 183.297 150.17 183.288C150.319 183.279 150.45 183.274 150.562 183.274C150.674 183.265 150.767 183.26 150.842 183.26C152.037 183.26 152.881 183.675 153.376 184.506C153.74 185.15 153.922 186.121 153.922 187.418ZM166.875 187.544C166.875 189.215 166.464 190.391 165.643 191.072C164.905 191.697 163.687 192.01 161.989 192.01C159.002 192.01 157.481 190.591 157.425 187.754L157.243 178.038C157.233 177.637 157.355 177.315 157.607 177.072C157.859 176.829 158.181 176.708 158.573 176.708C158.974 176.708 159.291 176.829 159.525 177.072C159.758 177.305 159.875 177.623 159.875 178.024L159.945 182.7C159.945 182.98 160.08 183.12 160.351 183.12C160.425 183.12 160.519 183.115 160.631 183.106C160.752 183.087 160.887 183.069 161.037 183.05C161.195 183.031 161.331 183.017 161.443 183.008C161.564 182.989 161.662 182.98 161.737 182.98C163.603 182.98 164.896 183.265 165.615 183.834C166.455 184.497 166.875 185.733 166.875 187.544ZM164.299 187.46C164.299 187.096 164.266 186.788 164.201 186.536C164.135 186.275 164.023 186.069 163.865 185.92C163.715 185.761 163.515 185.649 163.263 185.584C163.02 185.509 162.717 185.472 162.353 185.472C162.222 185.472 161.611 185.5 160.519 185.556C160.369 185.565 160.248 185.645 160.155 185.794C160.061 185.934 160.015 186.088 160.015 186.256V187.446C160.033 187.959 160.094 188.342 160.197 188.594C160.43 189.163 161.046 189.448 162.045 189.448C162.931 189.448 163.519 189.341 163.809 189.126C164.135 188.855 164.299 188.3 164.299 187.46ZM179.828 178.864L179.758 190.638C179.748 191.039 179.627 191.366 179.394 191.618C179.16 191.87 178.848 191.996 178.456 191.996C177.55 191.996 177.107 191.548 177.126 190.652C177.163 187.087 177.107 183.601 176.958 180.194C176.93 179.671 176.622 179.415 176.034 179.424L171.484 179.452C171.092 179.461 170.779 179.349 170.546 179.116C170.312 178.883 170.196 178.565 170.196 178.164C170.196 177.809 170.317 177.515 170.56 177.282C170.802 177.039 171.106 176.909 171.47 176.89C173.383 176.806 175.329 176.82 177.308 176.932C178.232 176.969 178.857 177.091 179.184 177.296C179.632 177.567 179.846 178.089 179.828 178.864ZM192.78 187.544C192.78 189.364 192.416 190.573 191.688 191.17C191.026 191.702 189.78 191.968 187.95 191.968C186.13 191.968 184.894 191.697 184.24 191.156C183.512 190.54 183.148 189.336 183.148 187.544C183.148 186.471 183.302 185.752 183.61 185.388C183.797 185.173 184.362 184.809 185.304 184.296C184.418 184.035 183.825 183.638 183.526 183.106C183.293 182.695 183.176 181.972 183.176 180.936C183.176 179.275 183.587 178.131 184.408 177.506C185.108 176.974 186.312 176.708 188.02 176.708C189.719 176.708 190.914 176.988 191.604 177.548C192.37 178.173 192.752 179.326 192.752 181.006C192.752 182.014 192.631 182.709 192.388 183.092C192.136 183.503 191.562 183.881 190.666 184.226C191.6 184.646 192.188 185.038 192.43 185.402C192.664 185.757 192.78 186.471 192.78 187.544ZM190.12 180.824C190.12 180.152 189.934 179.699 189.56 179.466C189.262 179.27 188.762 179.172 188.062 179.172C187.26 179.172 186.714 179.275 186.424 179.48C186.032 179.732 185.836 180.231 185.836 180.978C185.836 181.482 185.958 181.883 186.2 182.182C186.396 182.406 186.742 182.63 187.236 182.854C187.414 182.929 187.694 183.055 188.076 183.232C188.207 183.167 188.338 183.106 188.468 183.05C188.608 182.994 188.744 182.938 188.874 182.882C189.21 182.733 189.458 182.583 189.616 182.434C189.952 182.126 190.12 181.589 190.12 180.824ZM190.176 187.362C190.176 186.671 189.476 186.06 188.076 185.528C187.722 185.677 187.423 185.813 187.18 185.934C186.938 186.046 186.751 186.149 186.62 186.242C186.07 186.625 185.794 187.049 185.794 187.516C185.794 188.841 186.527 189.504 187.992 189.504C188.851 189.504 189.43 189.364 189.728 189.084C190.027 188.804 190.176 188.23 190.176 187.362ZM233.449 190.68C233.458 191.072 233.337 191.394 233.085 191.646C232.833 191.889 232.511 192.01 232.119 192.01C231.718 192.01 231.4 191.893 231.167 191.66C230.943 191.427 230.831 191.109 230.831 190.708L230.789 186.032C230.789 185.78 230.626 185.654 230.299 185.654C230.215 185.654 230.108 185.659 229.977 185.668C229.856 185.677 229.711 185.691 229.543 185.71C229.216 185.738 228.969 185.752 228.801 185.752C226.962 185.752 225.688 185.463 224.979 184.884C224.195 184.231 223.803 182.994 223.803 181.174C223.803 179.429 224.19 178.239 224.965 177.604C225.646 177.035 226.892 176.75 228.703 176.75C230.467 176.75 231.676 177.011 232.329 177.534C233.057 178.122 233.412 179.27 233.393 180.978C233.374 182.341 233.37 183.825 233.379 185.43C233.388 187.035 233.412 188.785 233.449 190.68ZM230.775 182.392V181.272C230.775 180.404 230.654 179.849 230.411 179.606C230.168 179.363 229.604 179.242 228.717 179.242C227.756 179.242 227.14 179.335 226.869 179.522C226.542 179.765 226.379 180.334 226.379 181.23C226.379 182.07 226.533 182.607 226.841 182.84C227.102 183.045 227.672 183.148 228.549 183.148H229.067C229.244 183.148 229.431 183.143 229.627 183.134C229.832 183.115 230.052 183.087 230.285 183.05C230.5 183.022 230.635 182.971 230.691 182.896C230.747 182.812 230.775 182.644 230.775 182.392ZM246.486 181.902C246.486 182.163 246.481 182.49 246.472 182.882C246.472 183.274 246.467 183.736 246.458 184.268C246.448 184.8 246.444 185.262 246.444 185.654C246.444 186.037 246.444 186.359 246.444 186.62C246.444 188.039 246.336 189.093 246.122 189.784C245.87 190.587 245.394 191.156 244.694 191.492C244.003 191.828 242.939 191.996 241.502 191.996C239.514 191.996 238.193 191.618 237.54 190.862C236.952 190.181 236.658 188.813 236.658 186.76V181.958C236.658 179.905 236.966 178.528 237.582 177.828C238.244 177.081 239.584 176.708 241.6 176.708C243.55 176.708 244.866 177.105 245.548 177.898C246.173 178.607 246.486 179.942 246.486 181.902ZM243.854 181.342C243.854 180.474 243.686 179.9 243.35 179.62C243.042 179.368 242.43 179.242 241.516 179.242C240.872 179.242 240.4 179.303 240.102 179.424C239.644 179.601 239.374 179.947 239.29 180.46C239.262 180.647 239.248 180.885 239.248 181.174C239.248 181.249 239.248 181.347 239.248 181.468C239.248 181.58 239.252 181.715 239.262 181.874C239.271 182.033 239.276 182.177 239.276 182.308C239.276 182.439 239.276 182.555 239.276 182.658C239.276 182.919 239.276 183.241 239.276 183.624C239.276 184.007 239.271 184.459 239.262 184.982V187.292C239.262 188.179 239.416 188.753 239.724 189.014C240.022 189.275 240.634 189.406 241.558 189.406C242.444 189.406 243.037 189.266 243.336 188.986C243.634 188.706 243.784 188.127 243.784 187.25C243.784 186.923 243.784 186.517 243.784 186.032C243.793 185.537 243.802 184.959 243.812 184.296C243.84 182.98 243.854 181.995 243.854 181.342ZM259.438 181.902C259.438 182.163 259.434 182.49 259.424 182.882C259.424 183.274 259.42 183.736 259.41 184.268C259.401 184.8 259.396 185.262 259.396 185.654C259.396 186.037 259.396 186.359 259.396 186.62C259.396 188.039 259.289 189.093 259.074 189.784C258.822 190.587 258.346 191.156 257.646 191.492C256.956 191.828 255.892 191.996 254.454 191.996C252.466 191.996 251.146 191.618 250.492 190.862C249.904 190.181 249.61 188.813 249.61 186.76V181.958C249.61 179.905 249.918 178.528 250.534 177.828C251.197 177.081 252.536 176.708 254.552 176.708C256.503 176.708 257.819 177.105 258.5 177.898C259.126 178.607 259.438 179.942 259.438 181.902ZM256.806 181.342C256.806 180.474 256.638 179.9 256.302 179.62C255.994 179.368 255.383 179.242 254.468 179.242C253.824 179.242 253.353 179.303 253.054 179.424C252.597 179.601 252.326 179.947 252.242 180.46C252.214 180.647 252.2 180.885 252.2 181.174C252.2 181.249 252.2 181.347 252.2 181.468C252.2 181.58 252.205 181.715 252.214 181.874C252.224 182.033 252.228 182.177 252.228 182.308C252.228 182.439 252.228 182.555 252.228 182.658C252.228 182.919 252.228 183.241 252.228 183.624C252.228 184.007 252.224 184.459 252.214 184.982V187.292C252.214 188.179 252.368 188.753 252.676 189.014C252.975 189.275 253.586 189.406 254.51 189.406C255.397 189.406 255.99 189.266 256.288 188.986C256.587 188.706 256.736 188.127 256.736 187.25C256.736 186.923 256.736 186.517 256.736 186.032C256.746 185.537 256.755 184.959 256.764 184.296C256.792 182.98 256.806 181.995 256.806 181.342ZM272.391 181.902C272.391 182.163 272.387 182.49 272.377 182.882C272.377 183.274 272.373 183.736 272.363 184.268C272.354 184.8 272.349 185.262 272.349 185.654C272.349 186.037 272.349 186.359 272.349 186.62C272.349 188.039 272.242 189.093 272.027 189.784C271.775 190.587 271.299 191.156 270.599 191.492C269.909 191.828 268.845 191.996 267.407 191.996C265.419 191.996 264.099 191.618 263.445 190.862C262.857 190.181 262.563 188.813 262.563 186.76V181.958C262.563 179.905 262.871 178.528 263.487 177.828C264.15 177.081 265.489 176.708 267.505 176.708C269.456 176.708 270.772 177.105 271.453 177.898C272.079 178.607 272.391 179.942 272.391 181.902ZM269.759 181.342C269.759 180.474 269.591 179.9 269.255 179.62C268.947 179.368 268.336 179.242 267.421 179.242C266.777 179.242 266.306 179.303 266.007 179.424C265.55 179.601 265.279 179.947 265.195 180.46C265.167 180.647 265.153 180.885 265.153 181.174C265.153 181.249 265.153 181.347 265.153 181.468C265.153 181.58 265.158 181.715 265.167 181.874C265.177 182.033 265.181 182.177 265.181 182.308C265.181 182.439 265.181 182.555 265.181 182.658C265.181 182.919 265.181 183.241 265.181 183.624C265.181 184.007 265.177 184.459 265.167 184.982V187.292C265.167 188.179 265.321 188.753 265.629 189.014C265.928 189.275 266.539 189.406 267.463 189.406C268.35 189.406 268.943 189.266 269.241 188.986C269.54 188.706 269.689 188.127 269.689 187.25C269.689 186.923 269.689 186.517 269.689 186.032C269.699 185.537 269.708 184.959 269.717 184.296C269.745 182.98 269.759 181.995 269.759 181.342ZM313.046 181.902C313.046 182.163 313.041 182.49 313.032 182.882C313.032 183.274 313.027 183.736 313.018 184.268C313.009 184.8 313.004 185.262 313.004 185.654C313.004 186.037 313.004 186.359 313.004 186.62C313.004 188.039 312.897 189.093 312.682 189.784C312.43 190.587 311.954 191.156 311.254 191.492C310.563 191.828 309.499 191.996 308.062 191.996C306.074 191.996 304.753 191.618 304.1 190.862C303.512 190.181 303.218 188.813 303.218 186.76V181.958C303.218 179.905 303.526 178.528 304.142 177.828C304.805 177.081 306.144 176.708 308.16 176.708C310.111 176.708 311.427 177.105 312.108 177.898C312.733 178.607 313.046 179.942 313.046 181.902ZM310.414 181.342C310.414 180.474 310.246 179.9 309.91 179.62C309.602 179.368 308.991 179.242 308.076 179.242C307.432 179.242 306.961 179.303 306.662 179.424C306.205 179.601 305.934 179.947 305.85 180.46C305.822 180.647 305.808 180.885 305.808 181.174C305.808 181.249 305.808 181.347 305.808 181.468C305.808 181.58 305.813 181.715 305.822 181.874C305.831 182.033 305.836 182.177 305.836 182.308C305.836 182.439 305.836 182.555 305.836 182.658C305.836 182.919 305.836 183.241 305.836 183.624C305.836 184.007 305.831 184.459 305.822 184.982V187.292C305.822 188.179 305.976 188.753 306.284 189.014C306.583 189.275 307.194 189.406 308.118 189.406C309.005 189.406 309.597 189.266 309.896 188.986C310.195 188.706 310.344 188.127 310.344 187.25C310.344 186.923 310.344 186.517 310.344 186.032C310.353 185.537 310.363 184.959 310.372 184.296C310.4 182.98 310.414 181.995 310.414 181.342ZM325.999 181.902C325.999 182.163 325.994 182.49 325.985 182.882C325.985 183.274 325.98 183.736 325.971 184.268C325.961 184.8 325.957 185.262 325.957 185.654C325.957 186.037 325.957 186.359 325.957 186.62C325.957 188.039 325.849 189.093 325.635 189.784C325.383 190.587 324.907 191.156 324.207 191.492C323.516 191.828 322.452 191.996 321.015 191.996C319.027 191.996 317.706 191.618 317.053 190.862C316.465 190.181 316.171 188.813 316.171 186.76V181.958C316.171 179.905 316.479 178.528 317.095 177.828C317.757 177.081 319.097 176.708 321.113 176.708C323.063 176.708 324.379 177.105 325.061 177.898C325.686 178.607 325.999 179.942 325.999 181.902ZM323.367 181.342C323.367 180.474 323.199 179.9 322.863 179.62C322.555 179.368 321.943 179.242 321.029 179.242C320.385 179.242 319.913 179.303 319.615 179.424C319.157 179.601 318.887 179.947 318.803 180.46C318.775 180.647 318.761 180.885 318.761 181.174C318.761 181.249 318.761 181.347 318.761 181.468C318.761 181.58 318.765 181.715 318.775 181.874C318.784 182.033 318.789 182.177 318.789 182.308C318.789 182.439 318.789 182.555 318.789 182.658C318.789 182.919 318.789 183.241 318.789 183.624C318.789 184.007 318.784 184.459 318.775 184.982V187.292C318.775 188.179 318.929 188.753 319.237 189.014C319.535 189.275 320.147 189.406 321.071 189.406C321.957 189.406 322.55 189.266 322.849 188.986C323.147 188.706 323.297 188.127 323.297 187.25C323.297 186.923 323.297 186.517 323.297 186.032C323.306 185.537 323.315 184.959 323.325 184.296C323.353 182.98 323.367 181.995 323.367 181.342ZM338.951 181.902C338.951 182.163 338.947 182.49 338.937 182.882C338.937 183.274 338.933 183.736 338.923 184.268C338.914 184.8 338.909 185.262 338.909 185.654C338.909 186.037 338.909 186.359 338.909 186.62C338.909 188.039 338.802 189.093 338.587 189.784C338.335 190.587 337.859 191.156 337.159 191.492C336.469 191.828 335.405 191.996 333.967 191.996C331.979 191.996 330.659 191.618 330.005 190.862C329.417 190.181 329.123 188.813 329.123 186.76V181.958C329.123 179.905 329.431 178.528 330.047 177.828C330.71 177.081 332.049 176.708 334.065 176.708C336.016 176.708 337.332 177.105 338.013 177.898C338.639 178.607 338.951 179.942 338.951 181.902ZM336.319 181.342C336.319 180.474 336.151 179.9 335.815 179.62C335.507 179.368 334.896 179.242 333.981 179.242C333.337 179.242 332.866 179.303 332.567 179.424C332.11 179.601 331.839 179.947 331.755 180.46C331.727 180.647 331.713 180.885 331.713 181.174C331.713 181.249 331.713 181.347 331.713 181.468C331.713 181.58 331.718 181.715 331.727 181.874C331.737 182.033 331.741 182.177 331.741 182.308C331.741 182.439 331.741 182.555 331.741 182.658C331.741 182.919 331.741 183.241 331.741 183.624C331.741 184.007 331.737 184.459 331.727 184.982V187.292C331.727 188.179 331.881 188.753 332.189 189.014C332.488 189.275 333.099 189.406 334.023 189.406C334.91 189.406 335.503 189.266 335.801 188.986C336.1 188.706 336.249 188.127 336.249 187.25C336.249 186.923 336.249 186.517 336.249 186.032C336.259 185.537 336.268 184.959 336.277 184.296C336.305 182.98 336.319 181.995 336.319 181.342ZM351.904 181.902C351.904 182.163 351.899 182.49 351.89 182.882C351.89 183.274 351.885 183.736 351.876 184.268C351.867 184.8 351.862 185.262 351.862 185.654C351.862 186.037 351.862 186.359 351.862 186.62C351.862 188.039 351.755 189.093 351.54 189.784C351.288 190.587 350.812 191.156 350.112 191.492C349.421 191.828 348.357 191.996 346.92 191.996C344.932 191.996 343.611 191.618 342.958 190.862C342.37 190.181 342.076 188.813 342.076 186.76V181.958C342.076 179.905 342.384 178.528 343 177.828C343.663 177.081 345.002 176.708 347.018 176.708C348.969 176.708 350.285 177.105 350.966 177.898C351.591 178.607 351.904 179.942 351.904 181.902ZM349.272 181.342C349.272 180.474 349.104 179.9 348.768 179.62C348.46 179.368 347.849 179.242 346.934 179.242C346.29 179.242 345.819 179.303 345.52 179.424C345.063 179.601 344.792 179.947 344.708 180.46C344.68 180.647 344.666 180.885 344.666 181.174C344.666 181.249 344.666 181.347 344.666 181.468C344.666 181.58 344.671 181.715 344.68 181.874C344.689 182.033 344.694 182.177 344.694 182.308C344.694 182.439 344.694 182.555 344.694 182.658C344.694 182.919 344.694 183.241 344.694 183.624C344.694 184.007 344.689 184.459 344.68 184.982V187.292C344.68 188.179 344.834 188.753 345.142 189.014C345.441 189.275 346.052 189.406 346.976 189.406C347.863 189.406 348.455 189.266 348.754 188.986C349.053 188.706 349.202 188.127 349.202 187.25C349.202 186.923 349.202 186.517 349.202 186.032C349.211 185.537 349.221 184.959 349.23 184.296C349.258 182.98 349.272 181.995 349.272 181.342Z" fill="white" fill-opacity="0.9"/>
<path d="M64.4025 238.956H66.2265C66.2265 240.096 67.1145 240.54 68.1225 240.54C68.7825 240.54 69.7905 240.348 69.7905 239.472C69.7905 238.536 68.4945 238.404 67.2465 238.056C65.9745 237.744 64.6905 237.204 64.6905 235.62C64.6905 233.856 66.3465 233.028 67.8945 233.028C69.6825 233.028 71.3265 233.808 71.3265 235.788H69.5025C69.4425 234.768 68.7225 234.492 67.8105 234.492C67.2105 234.492 66.5145 234.744 66.5145 235.464C66.5145 236.124 66.9225 236.22 69.0705 236.76C69.7065 236.904 71.6145 237.324 71.6145 239.256C71.6145 240.828 70.3905 242.004 68.0505 242.004C66.1545 242.004 64.3665 241.068 64.4025 238.956ZM74.2474 237.552C74.2474 238.98 74.8834 240.42 76.5754 240.42C78.2674 240.42 78.9034 238.98 78.9034 237.552C78.9034 236.052 78.2674 234.612 76.5754 234.612C74.8834 234.612 74.2474 236.052 74.2474 237.552ZM72.3634 237.552C72.3634 235.008 73.9354 233.028 76.5754 233.028C79.2154 233.028 80.7874 235.008 80.7874 237.552C80.7874 240.024 79.2154 242.004 76.5754 242.004C73.9354 242.004 72.3634 240.024 72.3634 237.552ZM82.0753 241.8V233.232H88.0993V234.816H83.9593V236.796H87.5473V238.26H83.9593V241.8H82.0753ZM89.1885 241.8V233.232H91.0725V241.8H89.1885ZM96.0036 235.344L94.8876 238.488H97.1076L96.0276 235.344H96.0036ZM91.8156 241.8L95.0676 233.232H96.9996L100.204 241.8H98.2476L97.5996 239.892H94.3956L93.7236 241.8H91.8156ZM106.166 234.696V237.264H107.63C108.494 237.264 109.286 237.072 109.286 235.98C109.286 234.888 108.494 234.696 107.63 234.696H106.166ZM104.282 241.8V233.232H108.146C110.294 233.232 111.11 234.588 111.11 235.98C111.11 237.372 110.294 238.728 108.146 238.728H106.166V241.8H104.282ZM112.286 241.8V233.232H118.694V234.816H114.17V236.652H118.322V238.116H114.17V240.216H118.79V241.8H112.286ZM121.951 234.696V237.108H124.015C124.867 237.108 125.311 236.748 125.311 235.884C125.311 235.056 124.867 234.696 124.015 234.696H121.951ZM120.067 241.8V233.232H124.687C126.223 233.232 127.195 234.3 127.195 235.596C127.195 236.604 126.799 237.36 125.839 237.744V237.768C126.763 238.02 127.027 238.896 127.087 239.772C127.123 240.312 127.099 241.332 127.447 241.8H125.563C125.347 241.26 125.359 240.432 125.263 239.748C125.131 238.848 124.783 238.452 123.835 238.452H121.951V241.8H120.067ZM128.728 241.8V233.232H135.136V234.816H130.612V236.652H134.764V238.116H130.612V240.216H135.232V241.8H128.728ZM135.957 241.8V240.312L140.553 234.816H136.317V233.232H143.061V234.72L138.465 240.216H143.181V241.8H135.957ZM147.63 241.8V233.232H150.282L152.286 239.124H152.31L154.206 233.232H156.858V241.8H155.094V235.728H155.07L152.97 241.8H151.518L149.418 235.788H149.394V241.8H147.63ZM160.029 237.552C160.029 238.98 160.665 240.42 162.357 240.42C164.049 240.42 164.685 238.98 164.685 237.552C164.685 236.052 164.049 234.612 162.357 234.612C160.665 234.612 160.029 236.052 160.029 237.552ZM158.145 237.552C158.145 235.008 159.717 233.028 162.357 233.028C164.997 233.028 166.569 235.008 166.569 237.552C166.569 240.024 164.997 242.004 162.357 242.004C159.717 242.004 158.145 240.024 158.145 237.552ZM167.857 241.8V233.232H169.729L173.305 238.98H173.329V233.232H175.093V241.8H173.209L169.645 236.064H169.621V241.8H167.857ZM178.647 241.8V234.816H176.079V233.232H183.099V234.816H180.531V241.8H178.647ZM187.363 235.344L186.247 238.488H188.467L187.387 235.344H187.363ZM183.175 241.8L186.427 233.232H188.359L191.563 241.8H189.607L188.959 239.892H185.755L185.083 241.8H183.175ZM192.302 241.8V233.232H194.186V240.216H198.362V241.8H192.302ZM206.243 233.232L203.399 241.8H201.275L198.491 233.232H200.435L202.343 239.256H202.367L204.299 233.232H206.243ZM208.486 237.552C208.486 238.98 209.122 240.42 210.814 240.42C212.506 240.42 213.142 238.98 213.142 237.552C213.142 236.052 212.506 234.612 210.814 234.612C209.122 234.612 208.486 236.052 208.486 237.552ZM206.602 237.552C206.602 235.008 208.174 233.028 210.814 233.028C213.454 233.028 215.026 235.008 215.026 237.552C215.026 240.024 213.454 242.004 210.814 242.004C208.174 242.004 206.602 240.024 206.602 237.552Z" fill="white"/>
<g filter="url(#filter3_f_0_1)">
<rect x="22.8" y="22.8" width="430" height="270" rx="17" fill="url(#paint1_linear_0_1)"/>
</g>
<defs>
<filter id="filter0_n_0_1" x="22.8" y="22.8" width="430" height="270" filterUnits="userSpaceOnUse" color-interpolation-filters="sRGB">
<feFlood flood-opacity="0" result="BackgroundImageFix"/>
<feBlend mode="normal" in="SourceGraphic" in2="BackgroundImageFix" result="shape"/>
<feTurbulence type="fractalNoise" baseFrequency="1.4285714626312256 1.4285714626312256" stitchTiles="stitch" numOctaves="3" result="noise" seed="975" />
<feColorMatrix in="noise" type="luminanceToAlpha" result="alphaNoise" />
<feComponentTransfer in="alphaNoise" result="coloredNoise1">
<feFuncA type="discrete" tableValues="1 1 1 1 1 1 1 1 1 1 1 1 1 1 1 1 1 1 1 1 1 1 1 1 1 1 1 1 1 1 1 1 1 1 1 1 1 1 1 1 1 1 1 1 1 1 1 1 1 1 1 0 0 0 0 0 0 0 0 0 0 0 0 0 0 0 0 0 0 0 0 0 0 0 0 0 0 0 0 0 0 0 0 0 0 0 0 0 0 0 0 0 0 0 0 0 0 0 0 0 "/>
</feComponentTransfer>
<feComposite operator="in" in2="shape" in="coloredNoise1" result="noise1Clipped" />
<feFlood flood-color="rgba(0, 0, 0, 0.25)" result="color1Flood" />
<feComposite operator="in" in2="noise1Clipped" in="color1Flood" result="color1" />
<feMerge result="effect1_noise_0_1">
<feMergeNode in="shape" />
<feMergeNode in="color1" />
</feMerge>
</filter>
<filter id="filter1_df_0_1" x="121.8" y="-50.2" width="564" height="564" filterUnits="userSpaceOnUse" color-interpolation-filters="sRGB">
<feFlood flood-opacity="0" result="BackgroundImageFix"/>
<feColorMatrix in="SourceAlpha" type="matrix" values="0 0 0 0 0 0 0 0 0 0 0 0 0 0 0 0 0 0 127 0" result="hardAlpha"/>
<feOffset dy="4"/>
<feGaussianBlur stdDeviation="2"/>
<feComposite in2="hardAlpha" operator="out"/>
<feColorMatrix type="matrix" values="0 0 0 0 0 0 0 0 0 0 0 0 0 0 0 0 0 0 0.25 0"/>
<feBlend mode="normal" in2="BackgroundImageFix" result="effect1_dropShadow_0_1"/>
<feBlend mode="normal" in="SourceGraphic" in2="effect1_dropShadow_0_1" result="shape"/>
<feGaussianBlur stdDeviation="50" result="effect2_foregroundBlur_0_1"/>
</filter>
<filter id="filter2_df_0_1" x="-164.2" y="-267.2" width="633" height="633" filterUnits="userSpaceOnUse" color-interpolation-filters="sRGB">
<feFlood flood-opacity="0" result="BackgroundImageFix"/>
<feColorMatrix in="SourceAlpha" type="matrix" values="0 0 0 0 0 0 0 0 0 0 0 0 0 0 0 0 0 0 127 0" result="hardAlpha"/>
<feOffset dy="4"/>
<feGaussianBlur stdDeviation="2"/>
<feComposite in2="hardAlpha" operator="out"/>
<feColorMatrix type="matrix" values="0 0 0 0 0 0 0 0 0 0 0 0 0 0 0 0 0 0 0.25 0"/>
<feBlend mode="normal" in2="BackgroundImageFix" result="effect1_dropShadow_0_1"/>
<feBlend mode="normal" in="SourceGraphic" in2="effect1_dropShadow_0_1" result="shape"/>
<feGaussianBlur stdDeviation="50" result="effect2_foregroundBlur_0_1"/>
</filter>
<filter id="filter3_f_0_1" x="0" y="0" width="475.6" height="315.6" filterUnits="userSpaceOnUse" color-interpolation-filters="sRGB">
<feFlood flood-opacity="0" result="BackgroundImageFix"/>
<feBlend mode="normal" in="SourceGraphic" in2="BackgroundImageFix" result="shape"/>
<feGaussianBlur stdDeviation="11.4" result="effect1_foregroundBlur_0_1"/>
</filter>
<radialGradient id="paint0_radial_0_1" cx="0" cy="0" r="1" gradientTransform="matrix(-23.8072 17.1648 -28.608 -14.2843 89.6414 130.635)" gradientUnits="userSpaceOnUse">
<stop stop-color="white"/>
<stop offset="1" stop-color="#DDDCDA"/>
</radialGradient>
<linearGradient id="paint1_linear_0_1" x1="237.8" y1="22.8" x2="237.8" y2="292.8" gradientUnits="userSpaceOnUse">
<stop stop-color="white" stop-opacity="0.44"/>
<stop offset="1" stop-color="white" stop-opacity="0"/>
</linearGradient>
<clipPath id="clip0_0_1">
<rect x="22.8" y="22.8" width="430" height="270" rx="16" fill="white"/>
</clipPath>
<clipPath id="clip1_0_1">
<rect width="18.5745" height="20" fill="white" transform="translate(383.8 63.8)"/>
</clipPath>
</defs>
</svg>
